<?xml version="1.0" encoding="iso-8859-1"?>
<!-- Uploaded to: SVG Repo, www.svgrepo.com, Generator: SVG Repo Mixer Tools -->
<svg version="1.1" id="Layer_1" xmlns="http://www.w3.org/2000/svg" xmlns:xlink="http://www.w3.org/1999/xlink" 
	 viewBox="0 0 128.5 128.5" xml:space="preserve">
<g id="_x31_5_2_">
	<g>
		<circle style="fill:#78CACE;" cx="64.25" cy="64.25" r="64.25"/>
	</g>
	<g>
		<g>
			<g>
				<rect x="59" y="62" style="fill:#B1C95D;" width="52" height="29"/>
				<ellipse style="fill:#9EB249;" cx="83.852" cy="76.433" rx="7.239" ry="10.406"/>
				<circle style="fill:#9EB249;" cx="106.925" cy="86.386" r="4.072"/>
				<circle style="fill:#9EB249;" cx="106.925" cy="66.48" r="4.072"/>
				<circle style="fill:#9EB249;" cx="62.588" cy="86.386" r="4.072"/>
				<circle style="fill:#9EB249;" cx="62.588" cy="66.48" r="4.072"/>
				<rect x="59" y="62" style="fill:#9EB249;" width="52" height="3"/>
				<rect x="59" y="88" style="fill:#9EB249;" width="52" height="3"/>
				<rect x="59" y="62" style="fill:#9EB249;" width="2" height="27"/>
				<rect x="108" y="62" style="fill:#9EB249;" width="3" height="27"/>
			</g>
			<g>
				<rect x="59" y="56" style="fill:#B1C95D;" width="52" height="29"/>
				<ellipse style="fill:#9EB249;" cx="83.852" cy="70.151" rx="7.239" ry="10.406"/>
				<circle style="fill:#9EB249;" cx="106.925" cy="80.104" r="4.072"/>
				<circle style="fill:#9EB249;" cx="106.925" cy="60.198" r="4.072"/>
				<circle style="fill:#9EB249;" cx="62.588" cy="80.104" r="4.072"/>
				<circle style="fill:#9EB249;" cx="62.588" cy="60.198" r="4.072"/>
				<rect x="59" y="56" style="fill:#9EB249;" width="52" height="3"/>
				<rect x="59" y="82" style="fill:#9EB249;" width="52" height="3"/>
				<rect x="59" y="56" style="fill:#9EB249;" width="2" height="27"/>
				<rect x="108" y="56" style="fill:#9EB249;" width="3" height="27"/>
			</g>
			<g>
				<rect x="59" y="50" style="fill:#B1C95D;" width="52" height="28"/>
				<ellipse style="fill:#9EB249;" cx="83.852" cy="63.869" rx="7.239" ry="10.406"/>
				<circle style="fill:#9EB249;" cx="106.925" cy="73.822" r="4.072"/>
				<circle style="fill:#9EB249;" cx="106.925" cy="54.916" r="4.072"/>
				<circle style="fill:#9EB249;" cx="62.588" cy="73.822" r="4.072"/>
				<circle style="fill:#9EB249;" cx="62.588" cy="53.916" r="4.072"/>
				<rect x="59" y="50" style="fill:#9EB249;" width="52" height="2"/>
				<rect x="59" y="76" style="fill:#9EB249;" width="52" height="2"/>
				<rect x="59" y="50" style="fill:#9EB249;" width="2" height="27"/>
				<rect x="108" y="50" style="fill:#9EB249;" width="3" height="27"/>
			</g>
			<g>
				<rect x="21" y="62" style="fill:#B1C95D;" width="52" height="29"/>
				<ellipse style="fill:#9EB249;" cx="45.852" cy="76.433" rx="7.239" ry="10.406"/>
				<circle style="fill:#9EB249;" cx="68.925" cy="86.386" r="4.072"/>
				<circle style="fill:#9EB249;" cx="68.925" cy="66.48" r="4.072"/>
				<circle style="fill:#9EB249;" cx="25.588" cy="86.386" r="4.072"/>
				<path style="fill:#9EB249;" d="M28.66,66.48c0,2.249-1.823,4.072-4.072,4.072s-2.072-1.823-2.072-4.072
					s-0.177-4.072,2.072-4.072C26.837,62.408,28.66,64.231,28.66,66.48z"/>
				<rect x="21" y="62" style="fill:#9EB249;" width="52" height="3"/>
				<rect x="21" y="88" style="fill:#9EB249;" width="52" height="3"/>
				<rect x="21" y="62" style="fill:#9EB249;" width="2" height="27"/>
				<rect x="70" y="62" style="fill:#9EB249;" width="3" height="27"/>
			</g>
			<g>
				<rect x="21" y="56" style="fill:#B1C95D;" width="52" height="29"/>
				<ellipse style="fill:#9EB249;" cx="45.852" cy="70.151" rx="7.239" ry="10.406"/>
				<circle style="fill:#9EB249;" cx="68.925" cy="80.104" r="4.072"/>
				<circle style="fill:#9EB249;" cx="68.925" cy="60.198" r="4.072"/>
				<circle style="fill:#9EB249;" cx="25.588" cy="80.104" r="4.072"/>
				<path style="fill:#9EB249;" d="M28.66,60.198c0,2.249-1.823,4.072-4.072,4.072s-2.072-1.823-2.072-4.072
					s-0.177-4.072,2.072-4.072C26.837,56.126,28.66,57.949,28.66,60.198z"/>
				<rect x="21" y="56" style="fill:#9EB249;" width="52" height="3"/>
				<rect x="21" y="82" style="fill:#9EB249;" width="52" height="3"/>
				<rect x="21" y="56" style="fill:#9EB249;" width="2" height="27"/>
				<rect x="70" y="56" style="fill:#9EB249;" width="3" height="27"/>
			</g>
			<g>
				<rect x="21" y="50" style="fill:#B1C95D;" width="52" height="28"/>
				<ellipse style="fill:#9EB249;" cx="45.852" cy="63.869" rx="7.239" ry="10.406"/>
				<circle style="fill:#9EB249;" cx="68.925" cy="73.822" r="4.072"/>
				<circle style="fill:#9EB249;" cx="68.925" cy="53.916" r="4.072"/>
				<circle style="fill:#9EB249;" cx="25.588" cy="73.822" r="4.072"/>
				<circle style="fill:#9EB249;" cx="25.588" cy="53.916" r="4.072"/>
				<rect x="21" y="50" style="fill:#9EB249;" width="52" height="2"/>
				<rect x="21" y="76" style="fill:#9EB249;" width="52" height="2"/>
				<rect x="21" y="50" style="fill:#9EB249;" width="2" height="27"/>
				<rect x="70" y="50" style="fill:#9EB249;" width="3" height="27"/>
			</g>
			<g>
				<rect x="21" y="43" style="fill:#B1C95D;" width="52" height="29"/>
				<ellipse style="fill:#9EB249;" cx="45.852" cy="57.587" rx="7.239" ry="10.406"/>
				<circle style="fill:#9EB249;" cx="68.925" cy="67.54" r="4.072"/>
				<circle style="fill:#9EB249;" cx="68.925" cy="47.634" r="4.072"/>
				<circle style="fill:#9EB249;" cx="25.588" cy="67.54" r="4.072"/>
				<path style="fill:#9EB249;" d="M28.66,47.634c0,2.249-1.823,4.072-4.072,4.072C22.34,51.706,21,50.249,21,48
					s1.34-4.438,3.588-4.438C26.837,43.563,28.66,45.385,28.66,47.634z"/>
				<rect x="21" y="43" style="fill:#9EB249;" width="52" height="3"/>
				<rect x="21" y="69" style="fill:#9EB249;" width="52" height="3"/>
				<rect x="21" y="43" style="fill:#9EB249;" width="2" height="27"/>
				<rect x="70" y="43" style="fill:#9EB249;" width="3" height="27"/>
			</g>
			<g>
				<rect x="21" y="37" style="fill:#B1C95D;" width="52" height="29"/>
				<ellipse style="fill:#9EB249;" cx="45.852" cy="51.306" rx="7.239" ry="10.406"/>
				<circle style="fill:#9EB249;" cx="68.925" cy="61.259" r="4.072"/>
				<circle style="fill:#9EB249;" cx="68.925" cy="41.352" r="4.072"/>
				<circle style="fill:#9EB249;" cx="25.588" cy="61.259" r="4.072"/>
				<circle style="fill:#9EB249;" cx="25.588" cy="41.352" r="4.072"/>
				<rect x="21" y="37" style="fill:#9EB249;" width="52" height="3"/>
				<rect x="21" y="63" style="fill:#9EB249;" width="52" height="3"/>
				<rect x="21" y="37" style="fill:#9EB249;" width="2" height="27"/>
				<rect x="70" y="37" style="fill:#9EB249;" width="3" height="27"/>
			</g>
		</g>
		<path style="fill:#EFCB6C;" d="M50.835,70.234c2.035,2.377,4.118,4.156,6.229,5.338c2.107,1.184,4.266,1.767,6.471,1.767
			c1.792,0,3.265-0.511,4.449-1.546c1.182-1.038,1.767-2.329,1.767-3.877c0-1.695-0.488-2.999-1.475-3.913
			c-0.986-0.914-3.242-1.853-6.765-2.803c-5.363-1.475-9.116-3.315-11.275-5.523c-2.157-2.191-3.229-5.216-3.229-9.042
			c0-4.717,1.487-8.532,4.449-11.457c2.962-2.938,7.107-4.668,12.445-5.217V29h4.607l0.036,4.887
			c2.072,0.219,4.107,0.695,6.106,1.452c2.001,0.743,3.974,1.779,5.924,3.084L76.041,48.6c-1.597-1.355-3.242-2.377-4.937-3.073
			c-1.682-0.695-3.377-1.035-5.059-1.035c-1.718,0-3.096,0.401-4.143,1.193c-1.049,0.804-1.572,1.84-1.572,3.121
			c0,1.317,0.462,2.364,1.39,3.145c0.925,0.792,2.754,1.535,5.471,2.254l0.464,0.135c5.851,1.571,9.688,3.314,11.53,5.215
			c1.231,1.292,2.181,2.828,2.826,4.608C82.671,65.956,83,67.929,83,70.099c0,4.949-1.499,9.058-4.498,12.311
			c-2.998,3.266-7.008,5.156-12.029,5.68v8.679h-4.608v-8.531c-3.377-0.05-6.486-0.684-9.325-1.891
			c-2.828-1.218-5.558-3.095-8.179-5.644L50.835,70.234z"/>
	</g>
</g>
</svg>